<?xml version="1.0" standalone="no"?>
<svg xmlns="http://www.w3.org/2000/svg" viewBox="0 0 273.07200000000006 22.44" width="273.07200000000006" height="22.44"><path fill="#ffffff" fill-rule="nonzero" d="M19.78 17.40L14.52 17.40L14.52 11.45Q14.52 10.34 14.60 9.18Q14.69 8.02 14.78 7.22Q14.88 6.43 14.90 6.22L14.90 6.22L14.81 6.22L11.76 17.40L7.61 17.40L4.54 6.24L4.44 6.24Q4.46 6.46 4.57 7.24Q4.68 8.02 4.78 9.18Q4.87 10.34 4.87 11.45L4.87 11.45L4.87 17.40L0 17.40L0 0.89L7.49 0.89L9.98 10.42L10.08 10.42L12.55 0.89L19.78 0.89L19.78 17.40ZM27.60 3.24L22.82 3.24L22.82 0L27.60 0L27.60 3.24ZM27.60 17.40L22.82 17.40L22.82 4.73L27.60 4.73L27.60 17.40ZM36.67 4.44Q39.22 4.44 40.98 5.44Q42.74 6.43 42.74 8.52L42.74 8.52L38.30 8.52Q38.30 7.82 37.68 7.54L37.68 7.54Q37.25 7.30 36.60 7.30L36.60 7.30Q34.87 7.30 34.87 8.11L34.87 8.11Q34.87 8.57 35.47 8.76Q36.07 8.95 37.44 9.17L37.44 9.17Q39.12 9.41 40.25 9.73Q41.38 10.06 42.22 10.88Q43.06 11.71 43.06 13.20L43.06 13.20Q43.06 15.62 41.24 16.66Q39.43 17.69 36.50 17.69L36.50 17.69Q34.82 17.69 33.34 17.22Q31.85 16.75 30.91 15.77Q29.98 14.78 29.98 13.27L29.98 13.27L34.42 13.27L34.42 13.37Q34.44 14.18 35.10 14.51Q35.76 14.83 36.50 14.83L36.50 14.83Q38.50 14.83 38.50 13.90L38.50 13.90Q38.50 13.42 37.87 13.20Q37.25 12.98 35.83 12.74L35.83 12.74Q34.13 12.46 33.04 12.12Q31.94 11.78 31.13 10.98Q30.31 10.18 30.31 8.74L30.31 8.74Q30.31 6.41 32.08 5.42Q33.84 4.44 36.67 4.44L36.67 4.44ZM51.34 4.44Q53.88 4.44 55.64 5.44Q57.41 6.43 57.41 8.52L57.41 8.52L52.97 8.52Q52.97 7.82 52.34 7.54L52.34 7.54Q51.91 7.30 51.26 7.30L51.26 7.30Q49.54 7.30 49.54 8.11L49.54 8.11Q49.54 8.57 50.14 8.76Q50.74 8.95 52.10 9.17L52.10 9.17Q53.78 9.41 54.91 9.73Q56.04 10.06 56.88 10.88Q57.72 11.71 57.72 13.20L57.72 13.20Q57.72 15.62 55.91 16.66Q54.10 17.69 51.17 17.69L51.17 17.69Q49.49 17.69 48 17.22Q46.51 16.75 45.58 15.77Q44.64 14.78 44.64 13.27L44.64 13.27L49.08 13.27L49.08 13.37Q49.10 14.18 49.76 14.51Q50.42 14.83 51.17 14.83L51.17 14.83Q53.16 14.83 53.16 13.90L53.16 13.90Q53.16 13.42 52.54 13.20Q51.91 12.98 50.50 12.74L50.50 12.74Q48.79 12.46 47.70 12.12Q46.61 11.78 45.79 10.98Q44.98 10.18 44.98 8.74L44.98 8.74Q44.98 6.41 46.74 5.42Q48.50 4.44 51.34 4.44L51.34 4.44ZM64.92 3.24L60.14 3.24L60.14 0L64.92 0L64.92 3.24ZM64.92 17.40L60.14 17.40L60.14 4.73L64.92 4.73L64.92 17.40ZM74.52 4.44Q77.86 4.44 79.76 6.13Q81.67 7.82 81.67 11.06L81.67 11.06Q81.67 14.30 79.76 16.00Q77.86 17.69 74.52 17.69L74.52 17.69Q71.18 17.69 69.29 16.01Q67.39 14.33 67.39 11.06L67.39 11.06Q67.39 7.80 69.29 6.12Q71.18 4.44 74.52 4.44L74.52 4.44ZM74.52 7.68Q72.17 7.68 72.17 10.39L72.17 10.39L72.17 11.76Q72.17 14.45 74.52 14.45L74.52 14.45Q76.90 14.45 76.90 11.76L76.90 11.76L76.90 10.39Q76.90 7.68 74.52 7.68L74.52 7.68ZM92.71 4.44Q94.92 4.44 96.02 5.66Q97.13 6.89 97.13 9.19L97.13 9.19L97.13 17.40L92.35 17.40L92.35 9.77Q92.35 8.95 91.93 8.46Q91.51 7.97 90.74 7.97L90.74 7.97Q89.86 7.97 89.30 8.54Q88.75 9.12 88.75 9.96L88.75 9.96L88.75 17.40L83.98 17.40L83.98 4.73L87.89 4.73L88.20 6.65Q88.94 5.64 90.16 5.04Q91.37 4.44 92.71 4.44L92.71 4.44ZM124.75 17.40L119.45 17.40L119.45 11.14L113.62 11.14L113.62 17.40L108.31 17.40L108.31 0.89L113.62 0.89L113.62 6.91L119.45 6.91L119.45 0.89L124.75 0.89L124.75 17.40ZM136.68 17.02Q135.70 19.68 134.27 21.06Q132.84 22.44 130.27 22.44L130.27 22.44Q128.71 22.44 127.51 22.01L127.51 22.01L127.51 19.15L129.43 19.15Q131.23 19.15 131.57 17.40L131.57 17.40L126.53 4.73L131.66 4.73L134.09 13.15L134.26 13.15L136.49 4.73L141.19 4.73L136.68 17.02ZM155.33 17.40L151.44 17.40L151.03 15.60Q149.64 17.69 147.00 17.69L147.00 17.69Q144.43 17.69 143.04 16.01Q141.65 14.33 141.65 11.04L141.65 11.04Q141.65 7.78 143.04 6.11Q144.43 4.44 147.00 4.44L147.00 4.44Q149.18 4.44 150.55 5.90L150.55 5.90L150.55 0L155.33 0L155.33 17.40ZM148.49 7.97Q146.42 7.97 146.42 10.44L146.42 10.44L146.42 11.71Q146.42 14.16 148.49 14.16L148.49 14.16Q149.54 14.16 150.07 13.42Q150.60 12.67 150.60 11.47L150.60 11.47L150.60 10.68Q150.60 9.48 150.07 8.72Q149.54 7.97 148.49 7.97L148.49 7.97ZM165.94 4.42Q166.49 4.42 166.92 4.55Q167.35 4.68 167.35 4.70L167.35 4.70L167.35 8.71L165.82 8.71Q164.33 8.71 163.67 9.48Q163.01 10.25 163.01 11.76L163.01 11.76L163.01 17.40L158.23 17.40L158.23 4.73L162.14 4.73L162.46 6.65Q162.89 5.54 163.82 4.98Q164.76 4.42 165.94 4.42L165.94 4.42ZM175.82 4.44Q179.16 4.44 181.07 6.13Q182.98 7.82 182.98 11.06L182.98 11.06Q182.98 14.30 181.07 16.00Q179.16 17.69 175.82 17.69L175.82 17.69Q172.49 17.69 170.59 16.01Q168.70 14.33 168.70 11.06L168.70 11.06Q168.70 7.80 170.59 6.12Q172.49 4.44 175.82 4.44L175.82 4.44ZM175.82 7.68Q173.47 7.68 173.47 10.39L173.47 10.39L173.47 11.76Q173.47 14.45 175.82 14.45L175.82 14.45Q178.20 14.45 178.20 11.76L178.20 11.76L178.20 10.39Q178.20 7.68 175.82 7.68L175.82 7.68ZM202.87 0.89Q204.41 0.89 205.61 1.60Q206.81 2.30 207.48 3.54Q208.15 4.78 208.15 6.31L208.15 6.31L208.15 6.62Q208.15 8.16 207.48 9.41Q206.81 10.66 205.61 11.36Q204.41 12.07 202.87 12.07L202.87 12.07L198.91 12.07L198.91 17.40L193.61 17.40L193.61 0.89L202.87 0.89ZM198.91 4.80L198.91 8.21L201.10 8.21Q201.94 8.21 202.36 7.78Q202.78 7.34 202.78 6.60L202.78 6.60L202.78 6.41Q202.78 5.64 202.36 5.22Q201.94 4.80 201.10 4.80L201.10 4.80L198.91 4.80ZM216.53 4.44Q219.86 4.44 221.77 6.13Q223.68 7.82 223.68 11.06L223.68 11.06Q223.68 14.30 221.77 16.00Q219.86 17.69 216.53 17.69L216.53 17.69Q213.19 17.69 211.30 16.01Q209.40 14.33 209.40 11.06L209.40 11.06Q209.40 7.80 211.30 6.12Q213.19 4.44 216.53 4.44L216.53 4.44ZM216.53 7.68Q214.18 7.68 214.18 10.39L214.18 10.39L214.18 11.76Q214.18 14.45 216.53 14.45L216.53 14.45Q218.90 14.45 218.90 11.76L218.90 11.76L218.90 10.39Q218.90 7.68 216.53 7.68L216.53 7.68ZM242.11 17.40L237.46 17.40L235.49 10.34L235.39 10.34L233.40 17.40L228.74 17.40L224.11 4.73L229.25 4.73L231.17 12.22L231.34 12.22L233.33 4.73L238.08 4.73L240.00 12.22L240.17 12.22L242.11 4.73L246.77 4.73L242.11 17.40ZM254.50 4.44Q257.98 4.44 259.81 6.07Q261.65 7.70 261.65 11.06L261.65 11.06L261.65 11.88L252.14 11.88Q252.14 13.25 252.76 13.94Q253.37 14.64 254.69 14.64L254.69 14.64Q255.89 14.64 256.45 14.14Q257.02 13.63 257.02 12.79L257.02 12.79L261.65 12.79Q261.65 15.10 259.90 16.39Q258.14 17.69 254.78 17.69L254.78 17.69Q251.26 17.69 249.31 16.04Q247.37 14.40 247.37 11.06L247.37 11.06Q247.37 7.80 249.26 6.12Q251.16 4.44 254.50 4.44L254.50 4.44ZM254.69 7.49Q252.43 7.49 252.17 9.62L252.17 9.62L256.82 9.62Q256.82 8.64 256.26 8.06Q255.70 7.49 254.69 7.49L254.69 7.49ZM271.66 4.42Q272.21 4.42 272.64 4.55Q273.07 4.68 273.07 4.70L273.07 4.70L273.07 8.71L271.54 8.71Q270.05 8.71 269.39 9.48Q268.73 10.25 268.73 11.76L268.73 11.76L268.73 17.40L263.95 17.40L263.95 4.73L267.86 4.73L268.18 6.65Q268.61 5.54 269.54 4.98Q270.48 4.42 271.66 4.42L271.66 4.42Z"></path></svg>